<?xml version="1.0" encoding="utf-8" standalone="no"?>
<!DOCTYPE svg PUBLIC "-//W3C//DTD SVG 1.1//EN"
  "http://www.w3.org/Graphics/SVG/1.1/DTD/svg11.dtd">
<svg xmlns:xlink="http://www.w3.org/1999/xlink" width="432pt" height="288pt" viewBox="0 0 432 288" xmlns="http://www.w3.org/2000/svg" version="1.1">
 <metadata>
  <rdf:RDF xmlns:dc="http://purl.org/dc/elements/1.1/" xmlns:cc="http://creativecommons.org/ns#" xmlns:rdf="http://www.w3.org/1999/02/22-rdf-syntax-ns#">
   <cc:Work>
    <dc:type rdf:resource="http://purl.org/dc/dcmitype/StillImage"/>
    <dc:date>2025-02-06T09:12:52.302328</dc:date>
    <dc:format>image/svg+xml</dc:format>
    <dc:creator>
     <cc:Agent>
      <dc:title>Matplotlib v3.8.1, https://matplotlib.org/</dc:title>
     </cc:Agent>
    </dc:creator>
   </cc:Work>
  </rdf:RDF>
 </metadata>
 <defs>
  <style type="text/css">*{stroke-linejoin: round; stroke-linecap: butt}</style>
 </defs>
 <g id="figure_1">
  <g id="patch_1">
   <path d="M 0 288 
L 432 288 
L 432 0 
L 0 0 
L 0 288 
z
" style="fill: none"/>
  </g>
  <g id="axes_1">
   <g id="patch_2">
    <path d="M 54 256.32 
L 388.8 256.32 
L 388.8 34.56 
L 54 34.56 
L 54 256.32 
z
" style="fill: none"/>
   </g>
   <g id="PolyCollection_1">
    <defs>
     <path id="m4f2cf7b339" d="M 147.260922 -89.926505 
L 147.260922 -31.68 
L 148.027713 -31.68 
L 148.794503 -31.68 
L 149.561294 -31.68 
L 150.328085 -31.68 
L 151.094875 -31.68 
L 151.861666 -31.68 
L 152.628457 -31.68 
L 153.395248 -31.68 
L 154.162038 -31.68 
L 154.928829 -31.68 
L 155.69562 -31.68 
L 156.462411 -31.68 
L 157.229201 -31.68 
L 157.995992 -31.68 
L 158.762783 -31.68 
L 159.529573 -31.68 
L 160.296364 -31.68 
L 161.063155 -31.68 
L 161.829946 -31.68 
L 162.596736 -31.68 
L 163.363527 -31.68 
L 164.130318 -31.68 
L 164.897109 -31.68 
L 165.663899 -31.68 
L 166.43069 -31.68 
L 167.197481 -31.68 
L 167.964271 -31.68 
L 168.731062 -31.68 
L 169.497853 -31.68 
L 170.264644 -31.68 
L 171.031434 -31.68 
L 171.798225 -31.68 
L 172.565016 -31.68 
L 173.331806 -31.68 
L 174.098597 -31.68 
L 174.865388 -31.68 
L 175.632179 -31.68 
L 176.398969 -31.68 
L 177.16576 -31.68 
L 177.932551 -31.68 
L 178.699342 -31.68 
L 179.466132 -31.68 
L 180.232923 -31.68 
L 180.999714 -31.68 
L 181.766504 -31.68 
L 182.533295 -31.68 
L 183.300086 -31.68 
L 184.066877 -31.68 
L 184.833667 -31.68 
L 185.600458 -31.68 
L 186.367249 -31.68 
L 187.13404 -31.68 
L 187.90083 -31.68 
L 188.667621 -31.68 
L 189.434412 -31.68 
L 190.201202 -31.68 
L 190.967993 -31.68 
L 191.734784 -31.68 
L 192.501575 -31.68 
L 193.268365 -31.68 
L 194.035156 -31.68 
L 194.801947 -31.68 
L 195.568737 -31.68 
L 196.335528 -31.68 
L 197.102319 -31.68 
L 197.86911 -31.68 
L 198.6359 -31.68 
L 199.402691 -31.68 
L 200.169482 -31.68 
L 200.936273 -31.68 
L 201.703063 -31.68 
L 202.469854 -31.68 
L 203.236645 -31.68 
L 204.003435 -31.68 
L 204.770226 -31.68 
L 205.537017 -31.68 
L 206.303808 -31.68 
L 207.070598 -31.68 
L 207.837389 -31.68 
L 208.60418 -31.68 
L 209.370971 -31.68 
L 210.137761 -31.68 
L 210.904552 -31.68 
L 211.671343 -31.68 
L 212.438133 -31.68 
L 213.204924 -31.68 
L 213.971715 -31.68 
L 214.738506 -31.68 
L 215.505296 -31.68 
L 216.272087 -31.68 
L 217.038878 -31.68 
L 217.805668 -31.68 
L 218.572459 -31.68 
L 219.33925 -31.68 
L 220.106041 -31.68 
L 220.872831 -31.68 
L 221.639622 -31.68 
L 222.406413 -31.68 
L 223.173204 -31.68 
L 223.939994 -31.68 
L 224.706785 -31.68 
L 225.473576 -31.68 
L 226.240366 -31.68 
L 227.007157 -31.68 
L 227.773948 -31.68 
L 228.540739 -31.68 
L 229.307529 -31.68 
L 230.07432 -31.68 
L 230.841111 -31.68 
L 231.607902 -31.68 
L 232.374692 -31.68 
L 233.141483 -31.68 
L 233.908274 -31.68 
L 234.675064 -31.68 
L 235.441855 -31.68 
L 236.208646 -31.68 
L 236.975437 -31.68 
L 237.742227 -31.68 
L 238.509018 -31.68 
L 239.275809 -31.68 
L 240.042599 -31.68 
L 240.80939 -31.68 
L 241.576181 -31.68 
L 242.342972 -31.68 
L 243.109762 -31.68 
L 243.876553 -31.68 
L 244.643344 -31.68 
L 245.410135 -31.68 
L 246.176925 -31.68 
L 246.943716 -31.68 
L 247.710507 -31.68 
L 248.477297 -31.68 
L 249.244088 -31.68 
L 250.010879 -31.68 
L 250.77767 -31.68 
L 251.54446 -31.68 
L 252.311251 -31.68 
L 253.078042 -31.68 
L 253.844833 -31.68 
L 254.611623 -31.68 
L 255.378414 -31.68 
L 256.145205 -31.68 
L 256.911995 -31.68 
L 257.678786 -31.68 
L 258.445577 -31.68 
L 259.212368 -31.68 
L 259.979158 -31.68 
L 260.745949 -31.68 
L 261.51274 -31.68 
L 262.27953 -31.68 
L 263.046321 -31.68 
L 263.813112 -31.68 
L 264.579903 -31.68 
L 265.346693 -31.68 
L 266.113484 -31.68 
L 266.880275 -31.68 
L 267.647066 -31.68 
L 268.413856 -31.68 
L 269.180647 -31.68 
L 269.947438 -31.68 
L 270.714228 -31.68 
L 271.481019 -31.68 
L 272.24781 -31.68 
L 273.014601 -31.68 
L 273.781391 -31.68 
L 274.548182 -31.68 
L 275.314973 -31.68 
L 276.081764 -31.68 
L 276.848554 -31.68 
L 277.615345 -31.68 
L 278.382136 -31.68 
L 279.148926 -31.68 
L 279.915717 -31.68 
L 280.682508 -31.68 
L 281.449299 -31.68 
L 282.216089 -31.68 
L 282.98288 -31.68 
L 283.749671 -31.68 
L 284.516461 -31.68 
L 285.283252 -31.68 
L 286.050043 -31.68 
L 286.816834 -31.68 
L 287.583624 -31.68 
L 288.350415 -31.68 
L 289.117206 -31.68 
L 289.883997 -31.68 
L 290.650787 -31.68 
L 291.417578 -31.68 
L 292.184369 -31.68 
L 292.951159 -31.68 
L 293.71795 -31.68 
L 294.484741 -31.68 
L 295.251532 -31.68 
L 296.018322 -31.68 
L 296.785113 -31.68 
L 297.551904 -31.68 
L 298.318695 -31.68 
L 299.085485 -31.68 
L 299.852276 -31.68 
L 300.619067 -31.68 
L 301.385857 -31.68 
L 302.152648 -31.68 
L 302.919439 -31.68 
L 303.68623 -31.68 
L 304.45302 -31.68 
L 305.219811 -31.68 
L 305.986602 -31.68 
L 306.753392 -31.68 
L 307.520183 -31.68 
L 308.286974 -31.68 
L 309.053765 -31.68 
L 309.820555 -31.68 
L 310.587346 -31.68 
L 311.354137 -31.68 
L 312.120928 -31.68 
L 312.887718 -31.68 
L 313.654509 -31.68 
L 314.4213 -31.68 
L 315.18809 -31.68 
L 315.954881 -31.68 
L 316.721672 -31.68 
L 317.488463 -31.68 
L 318.255253 -31.68 
L 319.022044 -31.68 
L 319.788835 -31.68 
L 320.555626 -31.68 
L 321.322416 -31.68 
L 322.089207 -31.68 
L 322.855998 -31.68 
L 323.622788 -31.68 
L 324.389579 -31.68 
L 325.15637 -31.68 
L 325.923161 -31.68 
L 326.689951 -31.68 
L 327.456742 -31.68 
L 328.223533 -31.68 
L 328.990324 -31.68 
L 329.757114 -31.68 
L 330.523905 -31.68 
L 331.290696 -31.68 
L 331.290696 -188.1883 
L 331.290696 -188.1883 
L 330.523905 -187.53145 
L 329.757114 -186.877438 
L 328.990324 -186.22625 
L 328.223533 -185.577875 
L 327.456742 -184.9323 
L 326.689951 -184.289514 
L 325.923161 -183.649505 
L 325.15637 -183.012259 
L 324.389579 -182.377767 
L 323.622788 -181.746014 
L 322.855998 -181.116991 
L 322.089207 -180.490684 
L 321.322416 -179.867083 
L 320.555626 -179.246175 
L 319.788835 -178.627949 
L 319.022044 -178.012394 
L 318.255253 -177.399497 
L 317.488463 -176.789247 
L 316.721672 -176.181634 
L 315.954881 -175.576644 
L 315.18809 -174.974268 
L 314.4213 -174.374494 
L 313.654509 -173.77731 
L 312.887718 -173.182706 
L 312.120928 -172.59067 
L 311.354137 -172.001191 
L 310.587346 -171.414259 
L 309.820555 -170.829861 
L 309.053765 -170.247988 
L 308.286974 -169.668628 
L 307.520183 -169.09177 
L 306.753392 -168.517404 
L 305.986602 -167.945519 
L 305.219811 -167.376104 
L 304.45302 -166.809148 
L 303.68623 -166.244642 
L 302.919439 -165.682573 
L 302.152648 -165.122933 
L 301.385857 -164.565709 
L 300.619067 -164.010893 
L 299.852276 -163.458473 
L 299.085485 -162.908439 
L 298.318695 -162.36078 
L 297.551904 -161.815487 
L 296.785113 -161.27255 
L 296.018322 -160.731958 
L 295.251532 -160.1937 
L 294.484741 -159.657768 
L 293.71795 -159.12415 
L 292.951159 -158.592837 
L 292.184369 -158.063819 
L 291.417578 -157.537086 
L 290.650787 -157.012628 
L 289.883997 -156.490436 
L 289.117206 -155.970499 
L 288.350415 -155.452808 
L 287.583624 -154.937352 
L 286.816834 -154.424124 
L 286.050043 -153.913112 
L 285.283252 -153.404307 
L 284.516461 -152.8977 
L 283.749671 -152.393281 
L 282.98288 -151.891041 
L 282.216089 -151.39097 
L 281.449299 -150.893059 
L 280.682508 -150.397299 
L 279.915717 -149.90368 
L 279.148926 -149.412193 
L 278.382136 -148.922829 
L 277.615345 -148.435579 
L 276.848554 -147.950433 
L 276.081764 -147.467383 
L 275.314973 -146.986419 
L 274.548182 -146.507533 
L 273.781391 -146.030715 
L 273.014601 -145.555957 
L 272.24781 -145.083249 
L 271.481019 -144.612583 
L 270.714228 -144.14395 
L 269.947438 -143.677341 
L 269.180647 -143.212748 
L 268.413856 -142.750161 
L 267.647066 -142.289573 
L 266.880275 -141.830973 
L 266.113484 -141.374355 
L 265.346693 -140.919709 
L 264.579903 -140.467027 
L 263.813112 -140.0163 
L 263.046321 -139.567519 
L 262.27953 -139.120677 
L 261.51274 -138.675766 
L 260.745949 -138.232776 
L 259.979158 -137.791699 
L 259.212368 -137.352527 
L 258.445577 -136.915253 
L 257.678786 -136.479867 
L 256.911995 -136.046362 
L 256.145205 -135.614729 
L 255.378414 -135.18496 
L 254.611623 -134.757048 
L 253.844833 -134.330984 
L 253.078042 -133.90676 
L 252.311251 -133.484369 
L 251.54446 -133.063802 
L 250.77767 -132.645052 
L 250.010879 -132.22811 
L 249.244088 -131.81297 
L 248.477297 -131.399622 
L 247.710507 -130.98806 
L 246.943716 -130.578275 
L 246.176925 -130.170261 
L 245.410135 -129.764008 
L 244.643344 -129.359511 
L 243.876553 -128.956761 
L 243.109762 -128.55575 
L 242.342972 -128.156471 
L 241.576181 -127.758917 
L 240.80939 -127.36308 
L 240.042599 -126.968953 
L 239.275809 -126.576528 
L 238.509018 -126.185798 
L 237.742227 -125.796756 
L 236.975437 -125.409395 
L 236.208646 -125.023706 
L 235.441855 -124.639683 
L 234.675064 -124.257319 
L 233.908274 -123.876607 
L 233.141483 -123.497539 
L 232.374692 -123.120108 
L 231.607902 -122.744308 
L 230.841111 -122.37013 
L 230.07432 -121.997569 
L 229.307529 -121.626617 
L 228.540739 -121.257268 
L 227.773948 -120.889513 
L 227.007157 -120.523347 
L 226.240366 -120.158763 
L 225.473576 -119.795754 
L 224.706785 -119.434312 
L 223.939994 -119.074431 
L 223.173204 -118.716106 
L 222.406413 -118.359327 
L 221.639622 -118.00409 
L 220.872831 -117.650387 
L 220.106041 -117.298212 
L 219.33925 -116.947558 
L 218.572459 -116.598419 
L 217.805668 -116.250787 
L 217.038878 -115.904658 
L 216.272087 -115.560023 
L 215.505296 -115.216877 
L 214.738506 -114.875213 
L 213.971715 -114.535024 
L 213.204924 -114.196305 
L 212.438133 -113.859049 
L 211.671343 -113.52325 
L 210.904552 -113.188901 
L 210.137761 -112.855997 
L 209.370971 -112.52453 
L 208.60418 -112.194495 
L 207.837389 -111.865886 
L 207.070598 -111.538696 
L 206.303808 -111.212919 
L 205.537017 -110.888549 
L 204.770226 -110.56558 
L 204.003435 -110.244007 
L 203.236645 -109.923822 
L 202.469854 -109.60502 
L 201.703063 -109.287595 
L 200.936273 -108.971542 
L 200.169482 -108.656853 
L 199.402691 -108.343524 
L 198.6359 -108.031548 
L 197.86911 -107.720919 
L 197.102319 -107.411633 
L 196.335528 -107.103682 
L 195.568737 -106.797061 
L 194.801947 -106.491765 
L 194.035156 -106.187787 
L 193.268365 -105.885123 
L 192.501575 -105.583765 
L 191.734784 -105.283709 
L 190.967993 -104.98495 
L 190.201202 -104.68748 
L 189.434412 -104.391296 
L 188.667621 -104.096391 
L 187.90083 -103.80276 
L 187.13404 -103.510397 
L 186.367249 -103.219296 
L 185.600458 -102.929454 
L 184.833667 -102.640863 
L 184.066877 -102.353518 
L 183.300086 -102.067415 
L 182.533295 -101.782547 
L 181.766504 -101.49891 
L 180.999714 -101.216498 
L 180.232923 -100.935306 
L 179.466132 -100.655328 
L 178.699342 -100.37656 
L 177.932551 -100.098996 
L 177.16576 -99.822631 
L 176.398969 -99.547459 
L 175.632179 -99.273476 
L 174.865388 -99.000676 
L 174.098597 -98.729055 
L 173.331806 -98.458607 
L 172.565016 -98.189327 
L 171.798225 -97.92121 
L 171.031434 -97.654251 
L 170.264644 -97.388445 
L 169.497853 -97.123787 
L 168.731062 -96.860273 
L 167.964271 -96.597897 
L 167.197481 -96.336653 
L 166.43069 -96.076539 
L 165.663899 -95.817548 
L 164.897109 -95.559675 
L 164.130318 -95.302917 
L 163.363527 -95.047267 
L 162.596736 -94.792722 
L 161.829946 -94.539276 
L 161.063155 -94.286924 
L 160.296364 -94.035663 
L 159.529573 -93.785487 
L 158.762783 -93.536392 
L 157.995992 -93.288372 
L 157.229201 -93.041424 
L 156.462411 -92.795542 
L 155.69562 -92.550723 
L 154.928829 -92.306961 
L 154.162038 -92.064252 
L 153.395248 -91.822591 
L 152.628457 -91.581974 
L 151.861666 -91.342396 
L 151.094875 -91.103853 
L 150.328085 -90.86634 
L 149.561294 -90.629854 
L 148.794503 -90.394388 
L 148.027713 -90.15994 
L 147.260922 -89.926505 
z
" style="stroke: #ffa500; stroke-opacity: 0.2"/>
    </defs>
    <g clip-path="url(#p5304d3f0f0)">
     <use xlink:href="#m4f2cf7b339" x="0" y="288" style="fill: #ffa500; fill-opacity: 0.2; stroke: #ffa500; stroke-opacity: 0.2"/>
    </g>
   </g>
   <g id="matplotlib.axis_1">
    <g id="text_1">
     <!-- Quantum Circuit Complexity -->
     <g style="fill: #efefef" transform="translate(136.38375 269.438125) scale(0.12 -0.12)">
      <defs>
       <path id="DejaVuSans-51" d="M 2522 4238 
Q 1834 4238 1429 3725 
Q 1025 3213 1025 2328 
Q 1025 1447 1429 934 
Q 1834 422 2522 422 
Q 3209 422 3611 934 
Q 4013 1447 4013 2328 
Q 4013 3213 3611 3725 
Q 3209 4238 2522 4238 
z
M 3406 84 
L 4238 -825 
L 3475 -825 
L 2784 -78 
Q 2681 -84 2626 -87 
Q 2572 -91 2522 -91 
Q 1538 -91 948 567 
Q 359 1225 359 2328 
Q 359 3434 948 4092 
Q 1538 4750 2522 4750 
Q 3503 4750 4090 4092 
Q 4678 3434 4678 2328 
Q 4678 1516 4351 937 
Q 4025 359 3406 84 
z
" transform="scale(0.015625)"/>
       <path id="DejaVuSans-75" d="M 544 1381 
L 544 3500 
L 1119 3500 
L 1119 1403 
Q 1119 906 1312 657 
Q 1506 409 1894 409 
Q 2359 409 2629 706 
Q 2900 1003 2900 1516 
L 2900 3500 
L 3475 3500 
L 3475 0 
L 2900 0 
L 2900 538 
Q 2691 219 2414 64 
Q 2138 -91 1772 -91 
Q 1169 -91 856 284 
Q 544 659 544 1381 
z
M 1991 3584 
L 1991 3584 
z
" transform="scale(0.015625)"/>
       <path id="DejaVuSans-61" d="M 2194 1759 
Q 1497 1759 1228 1600 
Q 959 1441 959 1056 
Q 959 750 1161 570 
Q 1363 391 1709 391 
Q 2188 391 2477 730 
Q 2766 1069 2766 1631 
L 2766 1759 
L 2194 1759 
z
M 3341 1997 
L 3341 0 
L 2766 0 
L 2766 531 
Q 2569 213 2275 61 
Q 1981 -91 1556 -91 
Q 1019 -91 701 211 
Q 384 513 384 1019 
Q 384 1609 779 1909 
Q 1175 2209 1959 2209 
L 2766 2209 
L 2766 2266 
Q 2766 2663 2505 2880 
Q 2244 3097 1772 3097 
Q 1472 3097 1187 3025 
Q 903 2953 641 2809 
L 641 3341 
Q 956 3463 1253 3523 
Q 1550 3584 1831 3584 
Q 2591 3584 2966 3190 
Q 3341 2797 3341 1997 
z
" transform="scale(0.015625)"/>
       <path id="DejaVuSans-6e" d="M 3513 2113 
L 3513 0 
L 2938 0 
L 2938 2094 
Q 2938 2591 2744 2837 
Q 2550 3084 2163 3084 
Q 1697 3084 1428 2787 
Q 1159 2491 1159 1978 
L 1159 0 
L 581 0 
L 581 3500 
L 1159 3500 
L 1159 2956 
Q 1366 3272 1645 3428 
Q 1925 3584 2291 3584 
Q 2894 3584 3203 3211 
Q 3513 2838 3513 2113 
z
" transform="scale(0.015625)"/>
       <path id="DejaVuSans-74" d="M 1172 4494 
L 1172 3500 
L 2356 3500 
L 2356 3053 
L 1172 3053 
L 1172 1153 
Q 1172 725 1289 603 
Q 1406 481 1766 481 
L 2356 481 
L 2356 0 
L 1766 0 
Q 1100 0 847 248 
Q 594 497 594 1153 
L 594 3053 
L 172 3053 
L 172 3500 
L 594 3500 
L 594 4494 
L 1172 4494 
z
" transform="scale(0.015625)"/>
       <path id="DejaVuSans-6d" d="M 3328 2828 
Q 3544 3216 3844 3400 
Q 4144 3584 4550 3584 
Q 5097 3584 5394 3201 
Q 5691 2819 5691 2113 
L 5691 0 
L 5113 0 
L 5113 2094 
Q 5113 2597 4934 2840 
Q 4756 3084 4391 3084 
Q 3944 3084 3684 2787 
Q 3425 2491 3425 1978 
L 3425 0 
L 2847 0 
L 2847 2094 
Q 2847 2600 2669 2842 
Q 2491 3084 2119 3084 
Q 1678 3084 1418 2786 
Q 1159 2488 1159 1978 
L 1159 0 
L 581 0 
L 581 3500 
L 1159 3500 
L 1159 2956 
Q 1356 3278 1631 3431 
Q 1906 3584 2284 3584 
Q 2666 3584 2933 3390 
Q 3200 3197 3328 2828 
z
" transform="scale(0.015625)"/>
       <path id="DejaVuSans-20" transform="scale(0.015625)"/>
       <path id="DejaVuSans-43" d="M 4122 4306 
L 4122 3641 
Q 3803 3938 3442 4084 
Q 3081 4231 2675 4231 
Q 1875 4231 1450 3742 
Q 1025 3253 1025 2328 
Q 1025 1406 1450 917 
Q 1875 428 2675 428 
Q 3081 428 3442 575 
Q 3803 722 4122 1019 
L 4122 359 
Q 3791 134 3420 21 
Q 3050 -91 2638 -91 
Q 1578 -91 968 557 
Q 359 1206 359 2328 
Q 359 3453 968 4101 
Q 1578 4750 2638 4750 
Q 3056 4750 3426 4639 
Q 3797 4528 4122 4306 
z
" transform="scale(0.015625)"/>
       <path id="DejaVuSans-69" d="M 603 3500 
L 1178 3500 
L 1178 0 
L 603 0 
L 603 3500 
z
M 603 4863 
L 1178 4863 
L 1178 4134 
L 603 4134 
L 603 4863 
z
" transform="scale(0.015625)"/>
       <path id="DejaVuSans-72" d="M 2631 2963 
Q 2534 3019 2420 3045 
Q 2306 3072 2169 3072 
Q 1681 3072 1420 2755 
Q 1159 2438 1159 1844 
L 1159 0 
L 581 0 
L 581 3500 
L 1159 3500 
L 1159 2956 
Q 1341 3275 1631 3429 
Q 1922 3584 2338 3584 
Q 2397 3584 2469 3576 
Q 2541 3569 2628 3553 
L 2631 2963 
z
" transform="scale(0.015625)"/>
       <path id="DejaVuSans-63" d="M 3122 3366 
L 3122 2828 
Q 2878 2963 2633 3030 
Q 2388 3097 2138 3097 
Q 1578 3097 1268 2742 
Q 959 2388 959 1747 
Q 959 1106 1268 751 
Q 1578 397 2138 397 
Q 2388 397 2633 464 
Q 2878 531 3122 666 
L 3122 134 
Q 2881 22 2623 -34 
Q 2366 -91 2075 -91 
Q 1284 -91 818 406 
Q 353 903 353 1747 
Q 353 2603 823 3093 
Q 1294 3584 2113 3584 
Q 2378 3584 2631 3529 
Q 2884 3475 3122 3366 
z
" transform="scale(0.015625)"/>
       <path id="DejaVuSans-6f" d="M 1959 3097 
Q 1497 3097 1228 2736 
Q 959 2375 959 1747 
Q 959 1119 1226 758 
Q 1494 397 1959 397 
Q 2419 397 2687 759 
Q 2956 1122 2956 1747 
Q 2956 2369 2687 2733 
Q 2419 3097 1959 3097 
z
M 1959 3584 
Q 2709 3584 3137 3096 
Q 3566 2609 3566 1747 
Q 3566 888 3137 398 
Q 2709 -91 1959 -91 
Q 1206 -91 779 398 
Q 353 888 353 1747 
Q 353 2609 779 3096 
Q 1206 3584 1959 3584 
z
" transform="scale(0.015625)"/>
       <path id="DejaVuSans-70" d="M 1159 525 
L 1159 -1331 
L 581 -1331 
L 581 3500 
L 1159 3500 
L 1159 2969 
Q 1341 3281 1617 3432 
Q 1894 3584 2278 3584 
Q 2916 3584 3314 3078 
Q 3713 2572 3713 1747 
Q 3713 922 3314 415 
Q 2916 -91 2278 -91 
Q 1894 -91 1617 61 
Q 1341 213 1159 525 
z
M 3116 1747 
Q 3116 2381 2855 2742 
Q 2594 3103 2138 3103 
Q 1681 3103 1420 2742 
Q 1159 2381 1159 1747 
Q 1159 1113 1420 752 
Q 1681 391 2138 391 
Q 2594 391 2855 752 
Q 3116 1113 3116 1747 
z
" transform="scale(0.015625)"/>
       <path id="DejaVuSans-6c" d="M 603 4863 
L 1178 4863 
L 1178 0 
L 603 0 
L 603 4863 
z
" transform="scale(0.015625)"/>
       <path id="DejaVuSans-65" d="M 3597 1894 
L 3597 1613 
L 953 1613 
Q 991 1019 1311 708 
Q 1631 397 2203 397 
Q 2534 397 2845 478 
Q 3156 559 3463 722 
L 3463 178 
Q 3153 47 2828 -22 
Q 2503 -91 2169 -91 
Q 1331 -91 842 396 
Q 353 884 353 1716 
Q 353 2575 817 3079 
Q 1281 3584 2069 3584 
Q 2775 3584 3186 3129 
Q 3597 2675 3597 1894 
z
M 3022 2063 
Q 3016 2534 2758 2815 
Q 2500 3097 2075 3097 
Q 1594 3097 1305 2825 
Q 1016 2553 972 2059 
L 3022 2063 
z
" transform="scale(0.015625)"/>
       <path id="DejaVuSans-78" d="M 3513 3500 
L 2247 1797 
L 3578 0 
L 2900 0 
L 1881 1375 
L 863 0 
L 184 0 
L 1544 1831 
L 300 3500 
L 978 3500 
L 1906 2253 
L 2834 3500 
L 3513 3500 
z
" transform="scale(0.015625)"/>
       <path id="DejaVuSans-79" d="M 2059 -325 
Q 1816 -950 1584 -1140 
Q 1353 -1331 966 -1331 
L 506 -1331 
L 506 -850 
L 844 -850 
Q 1081 -850 1212 -737 
Q 1344 -625 1503 -206 
L 1606 56 
L 191 3500 
L 800 3500 
L 1894 763 
L 2988 3500 
L 3597 3500 
L 2059 -325 
z
" transform="scale(0.015625)"/>
      </defs>
      <use xlink:href="#DejaVuSans-51"/>
      <use xlink:href="#DejaVuSans-75" x="78.710938"/>
      <use xlink:href="#DejaVuSans-61" x="142.089844"/>
      <use xlink:href="#DejaVuSans-6e" x="203.369141"/>
      <use xlink:href="#DejaVuSans-74" x="266.748047"/>
      <use xlink:href="#DejaVuSans-75" x="305.957031"/>
      <use xlink:href="#DejaVuSans-6d" x="369.335938"/>
      <use xlink:href="#DejaVuSans-20" x="466.748047"/>
      <use xlink:href="#DejaVuSans-43" x="498.535156"/>
      <use xlink:href="#DejaVuSans-69" x="568.359375"/>
      <use xlink:href="#DejaVuSans-72" x="596.142578"/>
      <use xlink:href="#DejaVuSans-63" x="635.005859"/>
      <use xlink:href="#DejaVuSans-75" x="689.986328"/>
      <use xlink:href="#DejaVuSans-69" x="753.365234"/>
      <use xlink:href="#DejaVuSans-74" x="781.148438"/>
      <use xlink:href="#DejaVuSans-20" x="820.357422"/>
      <use xlink:href="#DejaVuSans-43" x="852.144531"/>
      <use xlink:href="#DejaVuSans-6f" x="921.96875"/>
      <use xlink:href="#DejaVuSans-6d" x="983.150391"/>
      <use xlink:href="#DejaVuSans-70" x="1080.5625"/>
      <use xlink:href="#DejaVuSans-6c" x="1144.039062"/>
      <use xlink:href="#DejaVuSans-65" x="1171.822266"/>
      <use xlink:href="#DejaVuSans-78" x="1231.595703"/>
      <use xlink:href="#DejaVuSans-69" x="1290.775391"/>
      <use xlink:href="#DejaVuSans-74" x="1318.558594"/>
      <use xlink:href="#DejaVuSans-79" x="1357.767578"/>
     </g>
    </g>
   </g>
   <g id="matplotlib.axis_2">
    <g id="text_2">
     <!-- Runtime -->
     <g style="fill: #efefef" transform="translate(47.504375 170.499375) rotate(-90) scale(0.12 -0.12)">
      <defs>
       <path id="DejaVuSans-52" d="M 2841 2188 
Q 3044 2119 3236 1894 
Q 3428 1669 3622 1275 
L 4263 0 
L 3584 0 
L 2988 1197 
Q 2756 1666 2539 1819 
Q 2322 1972 1947 1972 
L 1259 1972 
L 1259 0 
L 628 0 
L 628 4666 
L 2053 4666 
Q 2853 4666 3247 4331 
Q 3641 3997 3641 3322 
Q 3641 2881 3436 2590 
Q 3231 2300 2841 2188 
z
M 1259 4147 
L 1259 2491 
L 2053 2491 
Q 2509 2491 2742 2702 
Q 2975 2913 2975 3322 
Q 2975 3731 2742 3939 
Q 2509 4147 2053 4147 
L 1259 4147 
z
" transform="scale(0.015625)"/>
      </defs>
      <use xlink:href="#DejaVuSans-52"/>
      <use xlink:href="#DejaVuSans-75" x="64.982422"/>
      <use xlink:href="#DejaVuSans-6e" x="128.361328"/>
      <use xlink:href="#DejaVuSans-74" x="191.740234"/>
      <use xlink:href="#DejaVuSans-69" x="230.949219"/>
      <use xlink:href="#DejaVuSans-6d" x="258.732422"/>
      <use xlink:href="#DejaVuSans-65" x="356.144531"/>
     </g>
    </g>
   </g>
   <g id="line2d_1">
    <path d="M 6.171429 233.921127 
L 16.906499 233.514277 
L 27.641569 232.888522 
L 37.609848 232.096212 
L 47.578128 231.080539 
L 56.779616 229.92268 
L 65.214314 228.65326 
L 73.649012 227.160011 
L 81.31692 225.583739 
L 88.984827 223.772025 
L 95.885943 221.914527 
L 102.78706 219.814476 
L 108.921386 217.719144 
L 115.055711 215.38251 
L 120.423246 213.117407 
L 125.790782 210.623499 
L 131.158317 207.87593 
L 136.525852 204.846603 
L 141.126596 202.001786 
L 145.72734 198.904195 
L 150.328085 195.528792 
L 154.928829 191.847662 
L 158.762783 188.524141 
L 162.596736 184.94679 
L 166.43069 181.093716 
L 170.264644 176.940875 
L 174.098597 172.461843 
L 177.932551 167.627553 
L 181.766504 162.406014 
L 185.600458 156.761985 
L 189.434412 150.656621 
L 193.268365 144.047065 
L 197.102319 136.886002 
L 200.169482 130.725115 
L 203.236645 124.148622 
L 206.303808 117.124767 
L 209.370971 109.619096 
L 212.438133 101.594214 
L 215.505296 93.009508 
L 218.572459 83.820851 
L 221.639622 73.980269 
L 224.706785 63.435583 
L 227.773948 52.130006 
L 230.841111 40.001705 
L 233.908274 26.983316 
L 236.975437 13.001412 
L 239.839104 -1 
L 239.839104 -1 
" clip-path="url(#p5304d3f0f0)" style="fill: none; stroke: #ff67ff; stroke-width: 2; stroke-linecap: square"/>
   </g>
   <g id="line2d_2">
    <path d="M 6.171429 227.620391 
L 23.040825 225.196078 
L 39.14343 222.65634 
L 54.479244 220.013178 
L 69.048268 217.281103 
L 82.850501 214.477108 
L 96.652734 211.4459 
L 109.688176 208.35789 
L 122.723619 205.034073 
L 134.99227 201.674256 
L 146.494131 198.305923 
L 157.995992 194.711628 
L 169.497853 190.876213 
L 180.232923 187.064694 
L 190.967993 183.01505 
L 200.936273 179.028458 
L 210.904552 174.811099 
L 220.872831 170.349613 
L 230.841111 165.62987 
L 240.042599 161.031047 
L 249.244088 156.18703 
L 258.445577 151.084747 
L 267.647066 145.710427 
L 276.081764 140.532617 
L 284.516461 135.1023 
L 292.951159 129.407163 
L 301.385857 123.434291 
L 309.820555 117.170139 
L 317.488463 111.210753 
L 325.15637 104.987741 
L 332.824277 98.48944 
L 340.492184 91.703674 
L 348.160092 84.617725 
L 355.827999 77.218314 
L 363.495906 69.491575 
L 371.163813 61.423028 
L 378.831721 52.997551 
L 385.732837 45.096411 
L 388.8 41.48477 
L 388.8 41.48477 
" clip-path="url(#p5304d3f0f0)" style="fill: none; stroke: #ffa500; stroke-width: 2; stroke-linecap: square"/>
   </g>
   <g id="line2d_3">
    <path d="M 6.171429 122.1552 
L 388.8 95.544 
L 388.8 95.544 
" clip-path="url(#p5304d3f0f0)" style="fill: none; stroke: #02b875; stroke-width: 2; stroke-linecap: square"/>
   </g>
   <g id="patch_3">
    <path d="M 54 256.32 
L 54 34.56 
" style="fill: none; stroke: #efefef; stroke-width: 1.5; stroke-linejoin: miter; stroke-linecap: square"/>
   </g>
   <g id="patch_4">
    <path d="M 54 256.32 
L 388.8 256.32 
" style="fill: none; stroke: #efefef; stroke-width: 1.5; stroke-linejoin: miter; stroke-linecap: square"/>
   </g>
   <g id="legend_1">
    <g id="line2d_4">
     <path d="M 63 47.658438 
L 73 47.658438 
L 83 47.658438 
" style="fill: none; stroke: #ff67ff; stroke-width: 2; stroke-linecap: square"/>
    </g>
    <g id="text_3">
     <!-- Classical -->
     <g style="fill: #efefef" transform="translate(91 51.158438) scale(0.1 -0.1)">
      <defs>
       <path id="DejaVuSans-73" d="M 2834 3397 
L 2834 2853 
Q 2591 2978 2328 3040 
Q 2066 3103 1784 3103 
Q 1356 3103 1142 2972 
Q 928 2841 928 2578 
Q 928 2378 1081 2264 
Q 1234 2150 1697 2047 
L 1894 2003 
Q 2506 1872 2764 1633 
Q 3022 1394 3022 966 
Q 3022 478 2636 193 
Q 2250 -91 1575 -91 
Q 1294 -91 989 -36 
Q 684 19 347 128 
L 347 722 
Q 666 556 975 473 
Q 1284 391 1588 391 
Q 1994 391 2212 530 
Q 2431 669 2431 922 
Q 2431 1156 2273 1281 
Q 2116 1406 1581 1522 
L 1381 1569 
Q 847 1681 609 1914 
Q 372 2147 372 2553 
Q 372 3047 722 3315 
Q 1072 3584 1716 3584 
Q 2034 3584 2315 3537 
Q 2597 3491 2834 3397 
z
" transform="scale(0.015625)"/>
      </defs>
      <use xlink:href="#DejaVuSans-43"/>
      <use xlink:href="#DejaVuSans-6c" x="69.824219"/>
      <use xlink:href="#DejaVuSans-61" x="97.607422"/>
      <use xlink:href="#DejaVuSans-73" x="158.886719"/>
      <use xlink:href="#DejaVuSans-73" x="210.986328"/>
      <use xlink:href="#DejaVuSans-69" x="263.085938"/>
      <use xlink:href="#DejaVuSans-63" x="290.869141"/>
      <use xlink:href="#DejaVuSans-61" x="345.849609"/>
      <use xlink:href="#DejaVuSans-6c" x="407.128906"/>
     </g>
    </g>
    <g id="line2d_5">
     <path d="M 63 62.336563 
L 73 62.336563 
L 83 62.336563 
" style="fill: none; stroke: #ffa500; stroke-width: 2; stroke-linecap: square"/>
    </g>
    <g id="text_4">
     <!-- QEM -->
     <g style="fill: #efefef" transform="translate(91 65.836563) scale(0.1 -0.1)">
      <defs>
       <path id="DejaVuSans-45" d="M 628 4666 
L 3578 4666 
L 3578 4134 
L 1259 4134 
L 1259 2753 
L 3481 2753 
L 3481 2222 
L 1259 2222 
L 1259 531 
L 3634 531 
L 3634 0 
L 628 0 
L 628 4666 
z
" transform="scale(0.015625)"/>
       <path id="DejaVuSans-4d" d="M 628 4666 
L 1569 4666 
L 2759 1491 
L 3956 4666 
L 4897 4666 
L 4897 0 
L 4281 0 
L 4281 4097 
L 3078 897 
L 2444 897 
L 1241 4097 
L 1241 0 
L 628 0 
L 628 4666 
z
" transform="scale(0.015625)"/>
      </defs>
      <use xlink:href="#DejaVuSans-51"/>
      <use xlink:href="#DejaVuSans-45" x="78.710938"/>
      <use xlink:href="#DejaVuSans-4d" x="141.894531"/>
     </g>
    </g>
    <g id="line2d_6">
     <path d="M 63 77.014688 
L 73 77.014688 
L 83 77.014688 
" style="fill: none; stroke: #02b875; stroke-width: 2; stroke-linecap: square"/>
    </g>
    <g id="text_5">
     <!-- QEC -->
     <g style="fill: #efefef" transform="translate(91 80.514688) scale(0.1 -0.1)">
      <use xlink:href="#DejaVuSans-51"/>
      <use xlink:href="#DejaVuSans-45" x="78.710938"/>
      <use xlink:href="#DejaVuSans-43" x="141.894531"/>
     </g>
    </g>
   </g>
  </g>
 </g>
 <defs>
  <clipPath id="p5304d3f0f0">
   <rect x="54" y="34.56" width="334.8" height="221.76"/>
  </clipPath>
 </defs>
</svg>
